<svg width="24" height="24" viewBox="0 0 24 24" fill="none" xmlns="http://www.w3.org/2000/svg">
<path fill-rule="evenodd" clip-rule="evenodd" d="M2.66667 0C1.19391 0 0 1.19391 0 2.66667V5.3333H24V2.66667C24 1.19391 22.8061 0 21.3333 0H2.66667ZM24 7.99997H0V10.6667H6.66667C6.84176 10.6667 7.01514 10.7012 7.17691 10.7682C7.33868 10.8352 7.48566 10.9334 7.60948 11.0572C7.73329 11.181 7.8315 11.328 7.89851 11.4898C7.96551 11.6516 8 11.8249 8 12C8 12.1751 7.96551 12.3485 7.89851 12.5103C7.8315 12.672 7.73329 12.819 7.60948 12.9428C7.48566 13.0667 7.33868 13.1649 7.17691 13.2319C7.01514 13.2989 6.84176 13.3334 6.66667 13.3334H0V16H10.6667C10.8418 16 11.0151 16.0345 11.1769 16.1015C11.3387 16.1685 11.4857 16.2667 11.6095 16.3905C11.7333 16.5143 11.8315 16.6613 11.8985 16.8231C11.9655 16.9849 12 17.1582 12 17.3333C12 17.5084 11.9655 17.6818 11.8985 17.8436C11.8315 18.0053 11.7333 18.1523 11.6095 18.2761C11.4857 18.4 11.3387 18.4982 11.1769 18.5652C11.0151 18.6322 10.8418 18.6667 10.6667 18.6667H0V21.3333C0 22.8061 1.19391 24 2.66667 24H21.3333C22.8061 24 24 22.8061 24 21.3333V7.99997Z" fill="#5EB5F7"/>
</svg>
